<?xml version="1.0" encoding="UTF-8"?> <svg xmlns="http://www.w3.org/2000/svg" id="Ebene_1" data-name="Ebene 1" viewBox="0 0 1121.06 490.22"><defs><style>.cls-1{fill:#1d2648;}.cls-2{fill:#e95e0d;}</style></defs><polygon class="cls-1" points="168.52 106.53 91.51 285.29 58.79 118.93 0 125.5 113.8 356 113.8 356 226.85 99.93 168.52 106.53"></polygon><path class="cls-2" d="M253.57,483.26c-1.88,4.16-5.32,6.64-8.77,6.93s-6.13-1.68-6.94-5.61l-15.5-79.2,18.19-1.53,9.34,51.34L274.55,401l18.07-1.52Z"></path><path class="cls-2" d="M359.81,412.53l-2.1,14.5,23.88-2c4.41-.37,7.38,3.38,6.6,8.73s-4.92,9.7-9.33,10.08l-23.89,2-2.29,15.81,35.29-3-2.75,18.94-44.54,3.74c-5.06.43-8.41-4.32-7.52-10.46l9.37-64.52c.89-6.14,5.72-11.58,10.78-12L398,390.61l-2.75,18.94Z"></path><path class="cls-2" d="M616.14,391.48,606.33,459l-18.4,1.55L597.74,393l-23.13,2,2.82-19.46,64.67-5.44-2.83,19.46Z"></path><path class="cls-2" d="M753.64,410c-3.1,21.29-19.15,39.67-38.85,41.32s-30.74-14.44-27.65-35.73l7.24-49.89,18.4-1.55-7.22,49.76C703.79,426,709.3,432,717.69,431.32s15.8-7.78,17.57-19.92l7.22-49.77,18.4-1.54Z"></path><path class="cls-2" d="M852.17,438.43,843,409.79l-15.92,1.34-4.32,29.78-18.4,1.54,11-75.75c.89-6.14,5.71-11.58,10.77-12L859,351.94c13.66-1.15,22.15,10.65,19.82,26.71a39.44,39.44,0,0,1-16.35,26.28L873,436.68Zm8-58.21c.93-6.4-2.73-10.48-7.57-10.07l-19.8,1.67-3.21,22.07,19.8-1.67C854.26,391.81,859.29,386.49,860.2,380.22Z"></path><path class="cls-2" d="M955.54,362.31l-2.1,14.49,23.88-2c4.41-.37,7.37,3.39,6.6,8.74s-4.92,9.7-9.33,10.07l-23.88,2-2.3,15.81,35.29-3L981,427.38l-44.54,3.75c-5.06.43-8.41-4.32-7.52-10.46l9.37-64.52c.89-6.14,5.72-11.58,10.78-12l44.65-3.76-2.75,18.94Z"></path><path class="cls-2" d="M1100.23,392.07c-3.11,21.41-20.82,28.45-35.88,29.72a71.21,71.21,0,0,1-28.54-4.05l5.88-17.78c7.9,1.91,17.53,3.68,25.71,3s13.37-2.8,14.06-7.5c.55-3.79-6.23-6.18-18.67-12s-17.61-11.94-15.75-24.74c2.42-16.72,12.8-25.2,34-27a80.78,80.78,0,0,1,26.36,2.17l-5.3,18.25a94.27,94.27,0,0,0-23.61-1.36c-10.11.85-12.6,2.6-13.06,5.74-.62,4.31,3.85,5.74,15.64,11.58C1094.65,374.86,1102.31,377.7,1100.23,392.07Z"></path><path class="cls-2" d="M505.88,381.54l-7.21,49.63c-11.84-20.16-19-31.56-26.58-43.82a6.33,6.33,0,0,0-3.63-3.05,8.68,8.68,0,0,0-4.54-.46c-5.12.7-8,4-9.27,12.85l0,0-11,76,18.18-1.53,7-48.19,25.66,40.92c3.4,5.17,7.24,4.57,9.66,4.2,5.09-.86,7.47-3.51,9.27-14.82L524.06,380Z"></path><path class="cls-1" d="M799.88,297.54c-5.84,13.65-16.79,22-27.86,23.27s-19.81-4.89-22.61-17.57L695.65,47.81l58.43-6.6,32.57,165.63,76.67-178L921.4,22.3Z"></path><path class="cls-1" d="M677,142.36c4.1-52.58-25.47-90.06-65.09-84.84L506.47,69.44c-16.25,1.83-31.52,19.91-34.08,39.89L443.09,337.6l58.68-3.27,10.52-82,51.17-5.79,27.67,82.79,68.24-3.81L625.67,229C663.07,207.43,674.26,177.47,677,142.36Zm-59.81,6.76c-2.63,20.41-18.53,38.13-34.08,39.89L519.5,196.2l9.22-71.87,63.61-7.19C607.89,115.38,619.86,128.28,617.19,149.12Z"></path><path class="cls-1" d="M999.33,74.4l-6.1,47.2,72.47-8.07c15.37-1.69,28.22,8.66,25.91,27.22-2.59,20.78-17.48,31.69-34.37,33.94l-71.93,8.13-6.66,51.45,113.41-12.71-8,61.66-143.14,16C924.69,301.08,913.7,286,916.29,266l27.17-210c2.58-20,17.86-38,34.11-39.85L1121.06,0l-8,61.65Z"></path><path class="cls-1" d="M394,340l-171.23,9.56L250.5,134c2.56-20,17.83-38.06,34.07-39.89L428.05,77.93l-7.92,61.66L306.39,152.45l-6.06,47.2,73.42-8.3c14.17-1.6,26.77,9.13,25,27.35-1.76,17.92-16.82,32.12-34.5,33.88l-71.75,8.31-6.61,51.45,113.39-12.82Z"></path></svg> 